# xmcd
#
# Track frame offsets: 
#        150
#        14325
#        26085
#        39955
#        53655
#        65540
#        83070
#        92860
#        104370
#        115247
#        126275
#        136155
#        148842
#        159902
#        170840
#        184242
#        194025
#        208037
#        220732
#        233552
#
# Disc length: 3407 seconds
#
# Revision: 1
# Processed by: cddbd v1.5.2PL0 Copyright (c) Steve Scherf et al.
# Submitted via: ExactAudioCopy v1.0b3
#
DISCID=1f0d4d14
DTITLE=Ralph Stanley and The Clinch Mountain Boy - Ralph Stanley and T
DTITLE=he Clinch Mountain Boys 1971-1973 CD2
DYEAR=1995
DGENRE=Bluegrass
TTITLE0=John Henry
TTITLE1=Pretty Little Indian
TTITLE2=Little Birdie
TTITLE3=Cripple Creek
TTITLE4=East Virginia Blues
TTITLE5=Little glass Of Wine
TTITLE6=Somebody Touched Me
TTITLE7=Sally Goodin'
TTITLE8=Working On a Building
TTITLE9=Rolling in my Sweet Baby's Arms
TTITLE10=Bound to Ride
TTITLE11=Mississippi Sawyer
TTITLE12=Goin' to Georgia
TTITLE13=All the Love I had Is Gone
TTITLE14=Will You Miss Me
TTITLE15=Katy Daly
TTITLE16=A little Boy Called Joe
TTITLE17=Six More Miles
TTITLE18=Cluck Old Hen
TTITLE19=That Lonesome Old Song
EXTD=
EXTT0=
EXTT1=
EXTT2=
EXTT3=
EXTT4=
EXTT5=
EXTT6=
EXTT7=
EXTT8=
EXTT9=
EXTT10=
EXTT11=
EXTT12=
EXTT13=
EXTT14=
EXTT15=
EXTT16=
EXTT17=
EXTT18=
EXTT19=
PLAYORDER=
